inDegrees=no
num_controls=7
num_derivatives=13
num_iterations=126
num_multipliers=7
num_parameters=0
num_slacks=7
num_states=26
objective=5.170933
objective_accelerations=0.503532
objective_balance=0.032938
objective_effort=0.208865
objective_height=4.401794
objective_ligament=0.023803
solver_duration=1406.764515
status=Solve_Succeeded
success=true
DataType=double
version=3
OpenSimVersion=4.4-2022-07-23-0e9fedc
endheader
time	/jointset/ground_pelvis/pelvis_tilt/value	/jointset/ground_pelvis/pelvis_tx/value	/jointset/ground_pelvis/pelvis_ty/value	/jointset/hip_l/hip_flexion_l/value	/jointset/hip_l/hip_adduction_l/value	/jointset/hip_l/hip_rotation_l/value	/jointset/back/lumbar_extension/value	/jointset/patellofemoral_l/patellar_flexion_l/value	/jointset/knee_l/knee_flexion_l/value	/jointset/knee_l/knee_adduction_l/value	/jointset/knee_l/knee_rotation_l/value	/jointset/ankle_l/ankle_angle_l/value	/jointset/subtalar_l/subtalar_angle_l/value	/jointset/ground_pelvis/pelvis_tilt/speed	/jointset/ground_pelvis/pelvis_tx/speed	/jointset/ground_pelvis/pelvis_ty/speed	/jointset/hip_l/hip_flexion_l/speed	/jointset/hip_l/hip_adduction_l/speed	/jointset/hip_l/hip_rotation_l/speed	/jointset/back/lumbar_extension/speed	/jointset/patellofemoral_l/patellar_flexion_l/speed	/jointset/knee_l/knee_flexion_l/speed	/jointset/knee_l/knee_adduction_l/speed	/jointset/knee_l/knee_rotation_l/speed	/jointset/ankle_l/ankle_angle_l/speed	/jointset/subtalar_l/subtalar_angle_l/speed	/forceset/tau_hip_flexion_l	/forceset/tau_hip_adduction_l	/forceset/tau_hip_rotation_l	/forceset/tau_knee_flexion_l	/forceset/tau_ankle_angle_l	/forceset/tau_subtalar_angle_l	/forceset/tau_lumbar_extension	lambda_cid13_p0	lambda_cid13_p1	lambda_cid13_p2	lambda_cid13_p3	lambda_cid13_p4	lambda_cid13_p5	lambda_cid14_p0	/jointset/ground_pelvis/pelvis_tilt/accel	/jointset/ground_pelvis/pelvis_tx/accel	/jointset/ground_pelvis/pelvis_ty/accel	/jointset/hip_l/hip_flexion_l/accel	/jointset/hip_l/hip_adduction_l/accel	/jointset/hip_l/hip_rotation_l/accel	/jointset/back/lumbar_extension/accel	/jointset/patellofemoral_l/patellar_flexion_l/accel	/jointset/knee_l/knee_flexion_l/accel	/jointset/knee_l/knee_adduction_l/accel	/jointset/knee_l/knee_rotation_l/accel	/jointset/ankle_l/ankle_angle_l/accel	/jointset/subtalar_l/subtalar_angle_l/accel	gamma_cid13_p0	gamma_cid13_p1	gamma_cid13_p2	gamma_cid13_p3	gamma_cid13_p4	gamma_cid13_p5	gamma_cid14_p0
0.5	-0.1823881343486147	0.04198366971347238	0.7983787211654814	0.7802997166918414	-0.4466049628497087	-0.2479782576208415	-0.2470709716160401	0.7650636061143147	0.7650636061140721	-0.1498737880620556	-0.1621502241976662	0.2166107557456241	0.01868903978020172	-0.3687188143765979	-0.04215400646051936	-0.3882144371489909	1.630889189762869	-0.2491938423785934	0.7288612263485454	-0.152083250415774	1.872670457615917	1.872670457615722	0.06084307681031959	-0.06694123924825053	0.762567052948807	0.1371390581685362	-0.09746904051460221	0.0292517232185741	-0.01126569298492304	-0.2290135339752101	-0.005789645950648452	0.03295291943880824	0.1194668483822619	-34.52072098388136	-12.78003618224415	6.856400278877555	1.893953476114839	-527.6398343385034	-70.56584605137392	-27.25298534484663	0.2511860824554168	0.2427946552929944	-0.383441008398025	-0.7497701803497423	0.6293160713943217	-0.1451626304812275	0.8838224740549474	-1.234487790199088	-1.234487790199008	-0.02619849224421177	0.139669485138602	-0.533502897695997	0.5285028526891714	-2.89585525127638e-07	-1.23062686490446e-06	8.342192747804642e-07	-1.869194085661239e-07	-2.480029541848417e-07	-8.187976017907357e-07	-2.398638136529101e-07
0.51	-0.1860619713071077	0.04157428020414607	0.7944782382478563	0.7965680824101342	-0.4490659249465984	-0.2406984814992186	-0.2485480318675811	0.7837257960261824	0.7837257960259568	-0.1492679042685597	-0.162813743586545	0.2242083287017661	0.02008556204811056	-0.3660046733840334	-0.03972568686916524	-0.3917995597113658	1.622559326602976	-0.2429841504861739	0.7269827901518372	-0.1433348655096971	1.859512588821566	1.859512588821381	0.06033960213205253	-0.06576043428111791	0.7568360968519507	0.1421354608410479	-0.1006586275088582	0.0309717318845395	-0.0113457885643831	-0.2315972933264459	-0.008919318955747714	0.03316928715683318	0.1220549776193947	-35.63410107331614	-12.66145125514536	6.817380878833677	2.364314631801661	-530.1104757751638	-70.36284511003926	-26.40288937308213	0.2881119246204535	0.2425455665334665	-0.3337075030580622	-0.9082918982069582	0.6189532248524577	-0.2260655305501285	0.8694366567732953	-1.394629736592497	-1.394629736591027	-0.06167549011051434	0.107769735456742	-0.6096625488265306	0.4808135193769204	-2.78497040005529e-07	-1.116810908018745e-06	8.439820424321128e-07	-1.672567355708951e-07	-2.328329811922863e-07	-7.641395536245706e-07	-2.304474216965873e-07
0.52	-0.189707350092295	0.04118911288182802	0.7905443721800262	0.8127464099939551	-0.4514643586292252	-0.2334408660228096	-0.2499377902384801	0.8022487685876616	0.8022487685873564	-0.1486669059289535	-0.1634653581789314	0.2317452379803144	0.02153116925171377	-0.3630271797129115	-0.0373095690588692	-0.394891067189861	1.612881562867145	-0.2366881595263008	0.7244290973037766	-0.1346228742880157	1.844826987525634	1.844826987525458	0.05986598607410412	-0.06456027999573562	0.7504343174292493	0.1469560453073593	-0.1038482145029242	0.03269174055057905	-0.01142588414543172	-0.2341810526775114	-0.01204899196081387	0.03338565487499991	0.1246431068566705	-36.75006024518108	-12.54305997687378	6.779130189494354	2.815210278700826	-532.6372146664791	-70.19609783637047	-25.55504469269097	0.3038566181672776	0.2403542990811294	-0.2847179916220963	-1.019350295537295	0.6465758848850347	-0.2802139607516704	0.8765437371760978	-1.540034290515444	-1.540034290515442	-0.02022676818033621	0.1435393487886044	-0.6676675628653165	0.4933392114490123	-2.673850956909217e-07	-9.647039165491948e-07	8.817584806401303e-07	-1.382354405566787e-07	-2.221654918791692e-07	-7.003752639936717e-07	-2.204547936201436e-07
0.53	-0.1933217608000584	0.04082811066103552	0.7865820857993817	0.8288213540334115	-0.453799426110619	-0.2262115744887724	-0.251240542867128	0.8206174178540505	0.8206174178538226	-0.148070695945433	-0.164104408212301	0.2392150190414126	0.02302419158538822	-0.3598114665214713	-0.03488564602065191	-0.3974790974967845	1.601873382929626	-0.2303186576702922	0.7213327474438201	-0.1259399889890841	1.828659201549752	1.82865920154955	0.05936905622663919	-0.06323802448586448	0.7434303518845314	0.1516195616155767	-0.106727637055837	0.03391676255207502	-0.01155418965413782	-0.2373917178752001	-0.01429580166142264	0.03356195066242698	0.1270141675385044	-37.5863134208847	-12.45534584660964	6.744748196368297	3.018476208445292	-535.2112233243353	-70.09990887060097	-24.70995104933226	0.3369434469693582	0.2441710690275611	-0.2328221463872069	-1.176642682555817	0.6330886622578453	-0.3389963917883921	0.86231029461791	-1.69165734024675	-1.691657340250639	-0.06556400166646505	0.1284895669807881	-0.7305335981380152	0.4485654479937087	-2.70701106796971e-07	-8.360210513920268e-07	9.920564752412714e-07	-1.06962896872355e-07	-2.276634964690969e-07	-6.607533188211401e-07	-2.22738919538864e-07
